# xmcd
#
# Track frame offsets: 
#        150
#        17711
#        38415
#        53855
#        70443
#        85820
#        103482
#        119134
#        135024
#        153362
#        168465
#        184398
#        206174
#        223371
#        240270
#        260605
#        279286
#        295342
#        311428
#        327743
#        342636
#
# Disc length: 4794 seconds
#
# Revision: 0
# Processed by: cddbd v1.5.1PL0 Copyright (c) Steve Scherf et al.
# Submitted via: ExactAudioCopy v0.95a3
#
DISCID=4a12b815
DTITLE=Various Artist - Дискотека В Стиле Руки Вверх. Часть 5
DYEAR=2000
DGENRE=Pop
TTITLE0=Revoльvers - Жених 2000
TTITLE1=Валдай - Моя Киска
TTITLE2=140 Ударов В Минуту - Старший Брат
TTITLE3=Сенатор - Мне Нужна Только Ты
TTITLE4=Александр Яковлев - Я Тебе Скажу, Милая
TTITLE5=Ежевика - Где-То Рядом
TTITLE6=Нора Устиновская - Волосы Цвета Льна
TTITLE7=Коктейль - Улетай
TTITLE8=Ворон Light - Уходи
TTITLE9=Тату - Я Теперь Твой Враг
TTITLE10=Плохишь - Она Не Ты
TTITLE11=Лариса Черникова - Хочу Быть Только С Тобой
TTITLE12=Natasha - Спи Со Мной
TTITLE13=Девочки - Полюбила Мальчика
TTITLE14=Мы - Мы Весёлые Друзья
TTITLE15=140 Ударов В Минуту and Охо-Хо - Выпускной 2000
TTITLE16=Ночной Патруль - Нам Хорошо
TTITLE17=2+2 - Школьный Выпускной
TTITLE18=Ди-Вам - Лето Дождей
TTITLE19=Доминика - Летние Каникулы
TTITLE20=Revoльvers - Я Не Прощаюсь! До Свидания!
EXTD=
EXTT0=
EXTT1=
EXTT2=
EXTT3=
EXTT4=
EXTT5=
EXTT6=
EXTT7=
EXTT8=
EXTT9=
EXTT10=
EXTT11=
EXTT12=
EXTT13=
EXTT14=
EXTT15=
EXTT16=
EXTT17=
EXTT18=
EXTT19=
EXTT20=
PLAYORDER=
